<?xml version="1.0" encoding="UTF-8"?>
<svg id="Layer_2" data-name="Layer 2" xmlns="http://www.w3.org/2000/svg" width="17.96" height="17.96" viewBox="0 0 17.96 17.96">
  <defs>
    <style>
      .cls-1 {
        fill: none;
        stroke: #707070;
        stroke-miterlimit: 10;
      }
    </style>
  </defs>
  <g id="Layer_1-2" data-name="Layer 1">
    <g>
      <polyline class="cls-1" points="5.98 9.73 7.48 11.23 11.98 6.73"/>
      <path class="cls-1" d="M7.17,1.47h0c.86-1.29,2.75-1.29,3.61,0h0c.49,.73,1.37,1.1,2.23,.92h0c1.52-.31,2.86,1.03,2.55,2.55h0c-.17,.86,.19,1.75,.92,2.23h0c1.29,.86,1.29,2.75,0,3.61h0c-.73,.49-1.1,1.37-.92,2.23h0c.31,1.52-1.03,2.86-2.55,2.55h0c-.86-.17-1.75,.19-2.23,.92h0c-.86,1.29-2.75,1.29-3.61,0h0c-.49-.73-1.37-1.1-2.23-.92h0c-1.52,.31-2.86-1.03-2.55-2.55h0c.17-.86-.19-1.75-.92-2.23h0c-1.29-.86-1.29-2.75,0-3.61h0c.73-.49,1.1-1.37,.92-2.23h0c-.31-1.52,1.03-2.86,2.55-2.55h0c.86,.17,1.75-.19,2.23-.92Z"/>
    </g>
  </g>
</svg>