<?xml version="1.0" encoding="UTF-8"?>
<svg id="Layer_2" data-name="Layer 2" xmlns="http://www.w3.org/2000/svg" width="20" height="20" viewBox="0 0 20 20">
  <defs>
    <style>
      .cls-1 {
        fill: #707070;
      }

      .cls-2 {
        stroke: #707070;
        stroke-miterlimit: 10;
      }

      .cls-2, .cls-3 {
        fill: none;
      }
    </style>
  </defs>
  <g id="Layer_1-2" data-name="Layer 1">
    <g>
      <rect class="cls-3" width="20" height="20"/>
      <path class="cls-1" d="M7.89,11.36h-.02c-.13,.29-.29,.51-.5,.66s-.45,.22-.73,.22c-.39,0-.71-.14-.95-.42s-.36-.66-.36-1.14c0-.63,.16-1.15,.49-1.57,.33-.42,.75-.63,1.27-.63,.21,0,.39,.05,.54,.14,.15,.1,.26,.2,.33,.31h.02l.04-.39h.56c-.06,.77-.11,1.35-.15,1.74s-.05,.59-.05,.61c-.01,.29,.03,.5,.11,.63,.08,.13,.22,.2,.39,.2,.27,0,.51-.16,.71-.49,.2-.33,.29-.75,.29-1.27,0-.74-.24-1.34-.72-1.81-.48-.47-1.13-.71-1.95-.71-.87,0-1.58,.29-2.12,.86-.54,.57-.81,1.28-.81,2.14s.26,1.52,.78,2.03c.52,.51,1.22,.77,2.1,.77,.36,0,.69-.04,1-.11,.3-.07,.58-.18,.84-.31l.23,.53c-.29,.14-.61,.25-.95,.32-.35,.08-.73,.11-1.15,.11-1.04,0-1.87-.31-2.5-.92-.63-.61-.95-1.41-.95-2.4s.33-1.87,.99-2.54,1.52-1.01,2.59-1.01c.91,0,1.68,.28,2.31,.85,.63,.56,.95,1.3,.95,2.21,0,.67-.17,1.21-.5,1.64-.33,.43-.72,.64-1.15,.64-.29,0-.51-.08-.67-.23-.16-.15-.26-.37-.29-.66Zm-.76-2.36c-.36,0-.64,.16-.86,.47s-.32,.72-.32,1.22c0,.32,.07,.57,.21,.75,.14,.18,.34,.28,.58,.28,.35,0,.62-.17,.82-.51,.2-.34,.3-.79,.3-1.35,0-.29-.06-.5-.19-.65s-.31-.22-.55-.22Z"/>
      <polyline class="cls-2" points="13 16 1 16 1 4 13 4"/>
      <polyline class="cls-2" points="17 4 19 4 19 16 17 16"/>
      <line class="cls-2" x1="13" y1="1" x2="17" y2="1"/>
      <line class="cls-2" x1="13" y1="19" x2="17" y2="19"/>
      <line class="cls-2" x1="15" y1="1" x2="15" y2="19"/>
    </g>
  </g>
</svg>