<?xml version="1.0" encoding="UTF-8"?>
<svg id="Layer_2" data-name="Layer 2" xmlns="http://www.w3.org/2000/svg" width="20" height="20" viewBox="0 0 20 20">
  <defs>
    <style>
      .cls-1 {
        fill: #707070;
      }

      .cls-2 {
        stroke: #707070;
        stroke-miterlimit: 10;
      }

      .cls-2, .cls-3 {
        fill: none;
      }
    </style>
  </defs>
  <g id="Layer_1-2" data-name="Layer 1">
    <g>
      <rect class="cls-3" width="20" height="20"/>
      <g>
        <path class="cls-1" d="M7.83,10.07l-1.62,.38,1.09,1.5-.69,.48-.98-1.57-.99,1.57-.69-.48,1.09-1.5-1.63-.38,.28-.78,1.59,.53-.09-1.81h.87l-.08,1.81,1.59-.53,.26,.78Z"/>
        <path class="cls-1" d="M13.07,10.07l-1.62,.38,1.09,1.5-.69,.48-.98-1.57-.99,1.57-.69-.48,1.09-1.5-1.63-.38,.28-.78,1.59,.53-.09-1.81h.87l-.08,1.81,1.59-.53,.26,.78Z"/>
      </g>
      <polyline class="cls-2" points="13 16 1 16 1 4 13 4"/>
      <polyline class="cls-2" points="17 4 19 4 19 16 17 16"/>
      <line class="cls-2" x1="13" y1="1" x2="17" y2="1"/>
      <line class="cls-2" x1="13" y1="19" x2="17" y2="19"/>
      <line class="cls-2" x1="15" y1="1" x2="15" y2="19"/>
    </g>
  </g>
</svg>